<mxfile host="app.diagrams.net" agent="Mozilla/5.0 (Windows NT 10.0; Win64; x64) AppleWebKit/537.36 (KHTML, like Gecko) Chrome/131.0.0.0 Safari/537.36" version="24.9.3">
  <diagram name="페이지-1" id="d55V-IQQP2xKHUlnmIjl">
    <mxGraphModel dx="1050" dy="557" grid="1" gridSize="10" guides="1" tooltips="1" connect="1" arrows="1" fold="1" page="1" pageScale="1" pageWidth="827" pageHeight="1169" math="0" shadow="0">
      <root>
        <mxCell id="0" />
        <mxCell id="1" parent="0" />
        <mxCell id="BFd8CiQP4B5FKIyd2q_G-5" value="&lt;div style=&quot;text-align: justify;&quot;&gt;&lt;br&gt;&lt;/div&gt;" style="html=1;dropTarget=0;whiteSpace=wrap;align=left;" vertex="1" parent="1">
          <mxGeometry x="40" y="260" width="650" height="350" as="geometry" />
        </mxCell>
        <mxCell id="BFd8CiQP4B5FKIyd2q_G-6" value="" style="shape=module;jettyWidth=8;jettyHeight=4;" vertex="1" parent="BFd8CiQP4B5FKIyd2q_G-5">
          <mxGeometry x="1" width="20" height="20" relative="1" as="geometry">
            <mxPoint x="-27" y="7" as="offset" />
          </mxGeometry>
        </mxCell>
        <mxCell id="BFd8CiQP4B5FKIyd2q_G-7" value="Car" style="swimlane;fontStyle=1;align=center;verticalAlign=top;childLayout=stackLayout;horizontal=1;startSize=26;horizontalStack=0;resizeParent=1;resizeParentMax=0;resizeLast=0;collapsible=1;marginBottom=0;whiteSpace=wrap;html=1;" vertex="1" parent="1">
          <mxGeometry x="90" y="410" width="160" height="140" as="geometry" />
        </mxCell>
        <mxCell id="BFd8CiQP4B5FKIyd2q_G-8" value="+ door: int =&lt;div&gt;+ color: String&lt;/div&gt;" style="text;strokeColor=none;fillColor=none;align=left;verticalAlign=top;spacingLeft=4;spacingRight=4;overflow=hidden;rotatable=0;points=[[0,0.5],[1,0.5]];portConstraint=eastwest;whiteSpace=wrap;html=1;" vertex="1" parent="BFd8CiQP4B5FKIyd2q_G-7">
          <mxGeometry y="26" width="160" height="44" as="geometry" />
        </mxCell>
        <mxCell id="BFd8CiQP4B5FKIyd2q_G-9" value="" style="line;strokeWidth=1;fillColor=none;align=left;verticalAlign=middle;spacingTop=-1;spacingLeft=3;spacingRight=3;rotatable=0;labelPosition=right;points=[];portConstraint=eastwest;strokeColor=inherit;" vertex="1" parent="BFd8CiQP4B5FKIyd2q_G-7">
          <mxGeometry y="70" width="160" height="8" as="geometry" />
        </mxCell>
        <mxCell id="BFd8CiQP4B5FKIyd2q_G-10" value="+ start(int speed)&lt;div&gt;+getColor(): String&lt;/div&gt;&lt;div&gt;+interCarPrn()&lt;/div&gt;" style="text;strokeColor=none;fillColor=none;align=left;verticalAlign=top;spacingLeft=4;spacingRight=4;overflow=hidden;rotatable=0;points=[[0,0.5],[1,0.5]];portConstraint=eastwest;whiteSpace=wrap;html=1;" vertex="1" parent="BFd8CiQP4B5FKIyd2q_G-7">
          <mxGeometry y="78" width="160" height="62" as="geometry" />
        </mxCell>
        <mxCell id="BFd8CiQP4B5FKIyd2q_G-11" value="&lt;div style=&quot;text-align: justify;&quot;&gt;&lt;span style=&quot;background-color: initial;&quot;&gt;&amp;lt;&amp;lt;&lt;/span&gt;&lt;b style=&quot;background-color: initial;&quot;&gt;Component&amp;gt;&amp;gt;&lt;/b&gt;&lt;/div&gt;&lt;div style=&quot;text-align: justify;&quot;&gt;&lt;b&gt;JarTest2&lt;/b&gt;&lt;/div&gt;" style="html=1;whiteSpace=wrap;strokeWidth=0;strokeColor=none;" vertex="1" parent="1">
          <mxGeometry x="50" y="270" width="110" height="50" as="geometry" />
        </mxCell>
        <mxCell id="BFd8CiQP4B5FKIyd2q_G-12" value="Bus" style="swimlane;fontStyle=1;align=center;verticalAlign=top;childLayout=stackLayout;horizontal=1;startSize=26;horizontalStack=0;resizeParent=1;resizeParentMax=0;resizeLast=0;collapsible=1;marginBottom=0;whiteSpace=wrap;html=1;" vertex="1" parent="1">
          <mxGeometry x="440" y="450" width="160" height="86" as="geometry" />
        </mxCell>
        <mxCell id="BFd8CiQP4B5FKIyd2q_G-13" value="+window: int" style="text;strokeColor=none;fillColor=none;align=left;verticalAlign=top;spacingLeft=4;spacingRight=4;overflow=hidden;rotatable=0;points=[[0,0.5],[1,0.5]];portConstraint=eastwest;whiteSpace=wrap;html=1;" vertex="1" parent="BFd8CiQP4B5FKIyd2q_G-12">
          <mxGeometry y="26" width="160" height="26" as="geometry" />
        </mxCell>
        <mxCell id="BFd8CiQP4B5FKIyd2q_G-14" value="" style="line;strokeWidth=1;fillColor=none;align=left;verticalAlign=middle;spacingTop=-1;spacingLeft=3;spacingRight=3;rotatable=0;labelPosition=right;points=[];portConstraint=eastwest;strokeColor=inherit;" vertex="1" parent="BFd8CiQP4B5FKIyd2q_G-12">
          <mxGeometry y="52" width="160" height="8" as="geometry" />
        </mxCell>
        <mxCell id="BFd8CiQP4B5FKIyd2q_G-15" value="+start()" style="text;strokeColor=none;fillColor=none;align=left;verticalAlign=top;spacingLeft=4;spacingRight=4;overflow=hidden;rotatable=0;points=[[0,0.5],[1,0.5]];portConstraint=eastwest;whiteSpace=wrap;html=1;" vertex="1" parent="BFd8CiQP4B5FKIyd2q_G-12">
          <mxGeometry y="60" width="160" height="26" as="geometry" />
        </mxCell>
        <mxCell id="BFd8CiQP4B5FKIyd2q_G-16" value="&amp;lt;&amp;lt;interface&amp;gt;&amp;gt;&lt;div&gt;InterCar&lt;/div&gt;" style="swimlane;fontStyle=1;align=center;verticalAlign=top;childLayout=stackLayout;horizontal=1;startSize=50;horizontalStack=0;resizeParent=1;resizeParentMax=0;resizeLast=0;collapsible=1;marginBottom=0;whiteSpace=wrap;html=1;" vertex="1" parent="1">
          <mxGeometry x="320" y="270" width="160" height="104" as="geometry" />
        </mxCell>
        <mxCell id="BFd8CiQP4B5FKIyd2q_G-18" value="" style="line;strokeWidth=1;fillColor=none;align=left;verticalAlign=middle;spacingTop=-1;spacingLeft=3;spacingRight=3;rotatable=0;labelPosition=right;points=[];portConstraint=eastwest;strokeColor=inherit;" vertex="1" parent="BFd8CiQP4B5FKIyd2q_G-16">
          <mxGeometry y="50" width="160" height="8" as="geometry" />
        </mxCell>
        <mxCell id="BFd8CiQP4B5FKIyd2q_G-19" value="+interCarPrn()" style="text;strokeColor=none;fillColor=none;align=left;verticalAlign=top;spacingLeft=4;spacingRight=4;overflow=hidden;rotatable=0;points=[[0,0.5],[1,0.5]];portConstraint=eastwest;whiteSpace=wrap;html=1;" vertex="1" parent="BFd8CiQP4B5FKIyd2q_G-16">
          <mxGeometry y="58" width="160" height="46" as="geometry" />
        </mxCell>
        <mxCell id="BFd8CiQP4B5FKIyd2q_G-20" value="" style="endArrow=block;dashed=1;endFill=0;endSize=12;html=1;rounded=0;entryX=0;entryY=0.5;entryDx=0;entryDy=0;" edge="1" parent="1" target="BFd8CiQP4B5FKIyd2q_G-16">
          <mxGeometry width="160" relative="1" as="geometry">
            <mxPoint x="160" y="410" as="sourcePoint" />
            <mxPoint x="320" y="410" as="targetPoint" />
          </mxGeometry>
        </mxCell>
        <mxCell id="BFd8CiQP4B5FKIyd2q_G-22" value="Extends" style="endArrow=none;endSize=16;endFill=0;html=1;rounded=0;startArrow=block;startFill=0;exitX=1.025;exitY=0.068;exitDx=0;exitDy=0;exitPerimeter=0;entryX=0;entryY=0.5;entryDx=0;entryDy=0;" edge="1" parent="1" source="BFd8CiQP4B5FKIyd2q_G-10" target="BFd8CiQP4B5FKIyd2q_G-13">
          <mxGeometry width="160" relative="1" as="geometry">
            <mxPoint x="270" y="492.5" as="sourcePoint" />
            <mxPoint x="430" y="492.5" as="targetPoint" />
          </mxGeometry>
        </mxCell>
      </root>
    </mxGraphModel>
  </diagram>
</mxfile>
